<svg xmlns="http://www.w3.org/2000/svg" width="1600" height="520" viewBox="0 0 1600 520" role="img" aria-labelledby="title desc">
  <title id="title">輪郭ラボ バナー</title>
  <desc id="desc">輪郭ラボ 世界に輪郭を。</desc>
  <defs>
    <linearGradient id="bg" x1="0" y1="0" x2="1" y2="1">
      <stop offset="0%" stop-color="#f8f8f9"/>
      <stop offset="100%" stop-color="#f1f1f3"/>
    </linearGradient>
  </defs>
  <rect width="1600" height="520" fill="url(#bg)"/>

  <g fill="none" stroke="#d9d9dc" stroke-width="2" opacity="0.7">
    <rect x="120" y="170" width="180" height="180"/>
    <rect x="160" y="140" width="180" height="180"/>
    <rect x="640" y="110" width="130" height="130"/>
    <rect x="1020" y="145" width="190" height="190"/>
    <rect x="1080" y="105" width="190" height="190"/>
    <rect x="1280" y="165" width="90" height="90"/>
    <rect x="1300" y="280" width="180" height="110"/>
    <rect x="820" y="320" width="90" height="90"/>
    <rect x="860" y="305" width="90" height="140"/>
    <circle cx="980" cy="145" r="48"/>
    <circle cx="760" cy="370" r="18"/>
  </g>

  <g transform="translate(660 260)">
    <rect x="-225" y="-66" width="310" height="132" fill="none" stroke="#404147" stroke-width="3"/>
    <text x="-70" y="20" text-anchor="middle" font-size="68" fill="#3c3d42" font-family="'Noto Sans JP', 'Hiragino Kaku Gothic ProN', 'Yu Gothic', sans-serif">輪郭ラボ</text>
    <text x="130" y="20" text-anchor="start" font-size="68" fill="#3c3d42" font-family="'Noto Sans JP', 'Hiragino Kaku Gothic ProN', 'Yu Gothic', sans-serif">世界に輪郭を。</text>
  </g>
</svg>
